<?xml version="1.0" standalone="no"?>
<!DOCTYPE svg PUBLIC "-//W3C//DTD SVG 20010904//EN"
 "http://www.w3.org/TR/2001/REC-SVG-20010904/DTD/svg10.dtd">
<svg version="1.0" xmlns="http://www.w3.org/2000/svg"
 width="300.000000pt" height="359.000000pt" viewBox="0 0 300.000000 359.000000"
 preserveAspectRatio="xMidYMid meet">
<metadata>
Created by potrace 1.10, written by Peter Selinger 2001-2011
</metadata>
<g transform="translate(0.000000,359.000000) scale(0.100000,-0.100000)"
fill="#000000" stroke="none">
<path d="M650 3224 c-176 -55 -290 -170 -355 -359 -47 -137 -50 -365 -5 -529
28 -104 57 -172 149 -351 107 -205 117 -246 105 -433 -15 -247 -11 -524 10
-627 61 -306 214 -548 392 -617 73 -29 137 -8 171 55 14 27 17 66 19 242 6
529 118 825 310 825 103 -1 177 -79 234 -249 47 -139 71 -327 73 -566 2 -184
4 -204 24 -245 28 -55 54 -73 109 -72 182 4 374 272 451 627 19 93 24 373 9
620 -12 199 4 257 131 485 36 65 96 214 120 300 37 126 44 363 15 477 -68 269
-260 433 -509 433 -139 0 -243 -28 -444 -121 -113 -53 -114 -53 -214 -53 -99
-1 -101 0 -195 46 -114 56 -217 94 -308 113 -84 18 -233 17 -292 -1z m295 -22
c17 -5 50 -16 75 -23 25 -7 51 -17 58 -22 6 -5 12 -7 12 -4 0 4 48 -18 108
-48 131 -65 202 -81 299 -64 37 6 79 18 93 25 41 22 200 94 209 94 5 0 44 11
87 25 96 31 214 38 310 20 81 -16 134 -41 189 -90 22 -19 43 -35 47 -35 5 0 8
-7 8 -15 0 -8 16 -30 36 -50 20 -20 48 -64 64 -98 l28 -62 -37 -5 c-52 -8
-120 -60 -77 -60 8 0 24 11 37 25 25 26 44 31 53 16 9 -15 -5 -43 -19 -37 -7
2 -22 -6 -34 -18 -17 -18 -21 -35 -21 -88 0 -37 -4 -78 -10 -92 -5 -14 -6 -26
-1 -26 13 0 35 29 28 37 -4 3 -2 14 4 25 5 10 7 24 3 30 -13 21 -12 81 1 95 8
7 23 13 35 13 11 0 23 7 26 15 20 52 43 -52 24 -109 -9 -29 -8 -40 5 -66 14
-26 15 -44 6 -121 -11 -100 -15 -111 -36 -102 -11 4 -13 1 -9 -11 3 -9 1 -23
-5 -30 -9 -11 -9 -15 1 -18 11 -4 11 -14 0 -52 -7 -26 -19 -55 -27 -63 -8 -8
-13 -19 -10 -24 3 -5 -8 -35 -25 -66 -16 -32 -30 -61 -30 -65 0 -3 -19 -41
-41 -83 -36 -67 -43 -75 -52 -59 -17 31 -33 43 -46 34 -9 -5 -7 -9 8 -13 13
-3 21 -13 21 -25 0 -12 4 -24 10 -27 6 -4 5 -16 -4 -33 -8 -15 -17 -44 -21
-65 -5 -26 -16 -42 -36 -54 -23 -14 -29 -24 -29 -51 0 -28 2 -32 14 -23 8 7
12 20 9 30 -5 20 22 37 33 20 6 -11 -21 -75 -36 -84 -6 -3 -10 -16 -9 -28 0
-21 1 -21 8 -2 8 19 9 19 17 -5 10 -30 11 -43 18 -241 5 -134 4 -158 -9 -163
-10 -3 -15 -19 -15 -46 0 -33 3 -40 20 -40 21 0 28 -24 10 -35 -5 -3 -10 -26
-10 -51 0 -30 -4 -43 -12 -42 -9 2 -12 -8 -10 -29 3 -28 0 -33 -20 -34 l-23
-2 23 -4 c12 -2 22 -9 22 -14 0 -6 -5 -7 -10 -4 -7 4 -9 -2 -4 -19 4 -17 0
-35 -10 -51 -11 -17 -13 -26 -4 -31 8 -5 7 -10 -3 -18 -8 -6 -16 -20 -17 -31
-6 -33 -44 -107 -59 -112 -8 -3 -11 -13 -8 -22 5 -16 -17 -53 -72 -123 -43
-54 -105 -107 -149 -128 -44 -22 -50 -22 -88 -9 -65 22 -75 53 -76 239 0 140
-5 210 -26 405 -7 63 -24 140 -44 190 -6 17 -10 30 -9 30 1 0 -8 22 -19 49
-12 27 -22 50 -22 53 0 10 -74 100 -98 119 -58 45 -156 53 -222 19 -64 -33
-132 -127 -170 -235 -25 -73 -50 -176 -50 -210 0 -19 -5 -51 -10 -70 -6 -19
-14 -149 -18 -288 l-7 -254 -35 -29 c-28 -24 -42 -29 -69 -25 -19 3 -37 10
-41 16 -4 7 -10 11 -14 11 -25 -4 -41 6 -98 61 -70 69 -111 128 -158 228 -11
25 -25 53 -30 62 -6 10 -10 29 -10 42 0 14 -9 41 -21 60 -11 19 -18 40 -14 45
3 6 1 19 -4 30 -6 10 -13 36 -15 57 -3 22 -10 76 -15 122 -10 78 -8 242 4 392
15 194 15 213 -12 345 -3 17 -25 66 -48 110 -23 44 -54 103 -68 130 -42 80
-91 193 -102 235 -1 3 -5 14 -9 25 -20 53 -26 76 -37 150 -37 248 12 473 136
613 49 55 124 105 194 130 57 19 80 22 176 17 61 -2 124 -8 140 -13z m1671
-543 c10 -17 -13 -36 -27 -22 -12 12 -4 33 11 33 5 0 12 -5 16 -11z m-281
-1509 c0 -22 -29 -18 -33 3 -3 14 1 18 15 15 10 -2 18 -10 18 -18z"/>
<path d="M2037 3133 c-13 -12 -7 -33 8 -33 8 0 15 9 15 20 0 20 -11 26 -23 13z"/>
<path d="M2230 3073 c-43 -16 -72 -81 -49 -109 6 -8 9 -21 5 -29 -4 -12 0 -14
22 -9 40 10 47 21 18 28 -27 7 -43 43 -32 71 8 23 56 38 82 26 21 -9 34 -6 34
9 0 4 -6 7 -12 8 -7 0 -22 3 -33 6 -11 3 -27 2 -35 -1z"/>
<path d="M2023 3043 c-15 -5 -18 -33 -4 -33 22 0 39 13 34 26 -5 15 -10 16
-30 7z"/>
<path d="M2340 3040 c-13 -9 -13 -11 0 -20 22 -15 30 -12 30 10 0 22 -8 25
-30 10z"/>
<path d="M2391 2990 l-23 -20 36 -36 c45 -45 70 -43 74 9 5 65 -37 88 -87 47z
m74 -10 c11 -17 -5 -50 -24 -50 -24 0 -45 25 -37 45 6 17 51 21 61 5z"/>
<path d="M1863 2980 c-26 -20 -17 -34 29 -45 l27 -7 -16 33 c-9 19 -17 35 -17
36 -1 1 -11 -7 -23 -17z"/>
<path d="M2299 2970 c-15 -17 -26 -38 -25 -48 1 -12 -6 -17 -26 -17 -19 0 -42
-15 -78 -50 -27 -27 -50 -52 -50 -56 0 -19 42 8 66 42 22 32 33 39 60 39 18 0
36 5 39 10 4 6 11 7 17 4 7 -5 9 0 6 14 -4 15 -2 22 8 22 9 0 14 12 14 35 0
19 -1 35 -2 35 -2 -1 -15 -14 -29 -30z"/>
<path d="M1949 2948 c-1 -1 -2 -40 -4 -86 -4 -102 11 -119 17 -19 3 39 7 78 9
86 2 7 -2 16 -8 18 -7 3 -13 3 -14 1z"/>
<path d="M1711 2911 c-12 -8 -12 -12 -2 -25 26 -31 49 -18 35 18 -7 18 -13 19
-33 7z"/>
<path d="M1824 2825 c-4 -8 -3 -23 0 -32 6 -15 8 -15 16 -3 13 20 12 50 0 50
-6 0 -13 -7 -16 -15z"/>
<path d="M2064 2826 c-3 -8 -1 -23 5 -33 9 -16 10 -16 11 -1 0 9 3 23 6 32 3
9 1 16 -5 16 -7 0 -14 -6 -17 -14z"/>
<path d="M842 2811 c-29 -10 -66 -31 -83 -47 -32 -31 -69 -100 -69 -130 0 -12
8 -4 20 21 28 60 59 91 119 121 39 19 71 27 113 28 60 1 75 9 36 20 -39 10
-81 6 -136 -13z"/>
<path d="M1620 2778 c0 -5 12 -14 28 -20 36 -16 82 -58 82 -76 0 -8 -8 -21
-17 -28 -17 -12 -17 -13 3 -14 11 0 29 9 38 19 16 18 15 21 -39 72 -50 48 -95
70 -95 47z"/>
<path d="M2230 2767 c0 -28 0 -28 25 -10 13 10 25 22 25 27 0 5 -7 3 -16 -5
-13 -10 -17 -10 -25 2 -6 10 -9 7 -9 -14z"/>
<path d="M1895 2703 c-25 -23 -45 -47 -45 -53 0 -18 112 -8 118 10 4 12 2 13
-9 4 -15 -11 -69 -18 -69 -8 0 36 81 84 106 63 10 -8 22 -8 43 -1 21 7 32 7
41 -1 10 -9 11 -9 8 3 -3 11 -24 16 -76 20 l-71 5 -46 -42z"/>
<path d="M2250 2710 c-26 -28 -30 -37 -24 -69 8 -45 14 -52 14 -18 0 35 17 78
38 93 9 7 14 16 10 20 -4 4 -21 -8 -38 -26z"/>
<path d="M1825 2710 c-4 -6 -15 -8 -26 -5 -10 4 -19 2 -19 -3 0 -16 50 -24 66
-11 8 6 11 15 8 20 -7 12 -21 11 -29 -1z"/>
<path d="M2313 2651 c-2 -37 -1 -39 32 -43 19 -2 35 0 35 4 0 4 -11 8 -24 8
-29 0 -38 10 -26 30 4 7 6 19 3 27 -9 24 -18 13 -20 -26z"/>
<path d="M2000 2655 c-8 -9 -7 -14 4 -18 9 -4 18 -2 22 4 3 6 18 10 32 9 41
-3 54 -1 48 8 -8 14 -94 11 -106 -3z"/>
<path d="M1557 2606 c-18 -14 -18 -15 -1 -24 13 -7 21 -6 29 4 7 10 30 15 67
15 51 1 62 -3 101 -35 42 -34 87 -48 87 -26 0 6 7 10 15 10 8 0 15 9 15 20 0
25 27 37 50 22 12 -7 21 -7 28 0 7 7 17 6 31 -1 17 -10 21 -9 21 4 0 11 -10
15 -37 15 -21 0 -54 3 -74 6 -33 6 -37 4 -43 -19 -3 -14 -12 -27 -20 -30 -25
-10 -71 8 -81 31 -9 20 -17 22 -90 22 -52 -1 -86 -5 -98 -14z"/>
<path d="M2143 2525 c0 -33 2 -45 4 -27 2 18 2 45 0 60 -2 15 -4 0 -4 -33z"/>
<path d="M2307 2560 c-4 -16 0 -20 17 -20 12 0 28 -6 34 -12 10 -10 15 -10 22
2 7 11 3 17 -16 22 -14 4 -31 12 -38 18 -10 8 -15 6 -19 -10z"/>
<path d="M2270 2549 c0 -8 -10 -19 -22 -24 -12 -6 -23 -16 -26 -22 -7 -22 23
-14 48 12 18 20 21 28 12 37 -9 9 -12 9 -12 -3z"/>
<path d="M2407 2530 c-9 -11 -17 -29 -17 -39 0 -16 7 -18 43 -16 23 2 50 6 59
10 20 8 38 -1 38 -20 0 -22 -12 -24 -74 -16 -59 8 -59 8 -70 -21 -12 -34 -47
-46 -87 -31 -24 9 -30 7 -53 -19 -35 -40 -35 -74 0 -50 6 4 13 13 16 21 5 17
36 23 59 11 12 -7 27 0 60 30 42 38 68 48 82 34 4 -4 21 -8 38 -9 39 -3 60 32
40 68 -12 22 -42 29 -57 14 -10 -10 -46 -9 -40 2 3 4 -7 6 -22 3 l-27 -5 24
27 c14 14 20 26 15 26 -5 0 -17 -9 -27 -20z"/>
<path d="M1767 2483 c-4 -3 -7 -18 -7 -32 0 -18 -12 -37 -39 -61 -36 -31 -40
-40 -42 -86 -2 -27 1 -56 6 -64 10 -17 -20 -41 -43 -33 -10 2 -5 -5 11 -17 39
-31 36 -50 -8 -43 -38 6 -69 -12 -78 -47 -6 -24 23 -72 56 -89 23 -12 29 -12
50 2 30 19 40 64 22 94 -11 15 -12 30 -5 54 6 18 7 64 3 101 l-6 68 40 38 c30
29 41 48 45 80 6 44 6 46 -5 35z m-89 -390 c2 -25 -2 -35 -22 -48 -43 -29 -85
10 -66 61 9 22 15 25 47 22 35 -3 38 -6 41 -35z"/>
<path d="M2175 2462 c-10 -10 9 -29 25 -25 13 4 19 -1 22 -17 3 -18 5 -19 20
-8 12 8 16 21 12 35 -5 17 -13 21 -41 20 -19 -1 -36 -4 -38 -5z"/>
<path d="M1888 2435 c-13 -28 3 -55 32 -55 10 0 21 -6 23 -12 4 -10 7 -10 14
-1 11 15 4 93 -8 93 -5 0 -6 -13 -3 -29 4 -21 2 -30 -11 -35 -9 -3 -21 -4 -26
0 -12 7 -11 44 1 44 6 0 10 5 10 10 0 19 -21 10 -32 -15z"/>
<path d="M2037 2448 c-12 -10 -14 -17 -7 -28 9 -13 12 -12 25 4 26 34 15 48
-18 24z"/>
<path d="M2128 2377 c-28 -83 -18 -103 16 -35 7 13 23 25 41 28 16 3 27 10 24
15 -2 6 -7 9 -11 8 -5 -2 -8 3 -8 10 0 6 -5 4 -11 -5 -14 -25 -27 -22 -31 7
-2 20 -7 14 -20 -28z"/>
<path d="M1810 2384 c0 -13 39 -36 50 -29 6 4 10 13 10 22 0 13 -3 13 -15 3
-12 -10 -18 -10 -30 0 -8 7 -15 8 -15 4z"/>
<path d="M1740 2309 c0 -3 11 -11 25 -17 21 -10 25 -9 25 6 0 11 -8 17 -25 17
-14 0 -25 -3 -25 -6z"/>
<path d="M1868 2300 c26 -11 29 -35 6 -48 -15 -8 -14 -11 5 -24 11 -8 18 -18
14 -21 -3 -4 -1 -7 5 -7 15 0 15 5 0 30 -11 17 -10 22 2 30 12 7 12 12 -4 29
-11 12 -26 21 -35 20 -10 0 -8 -3 7 -9z"/>
<path d="M2214 2299 c-4 -7 -22 -9 -44 -6 -29 4 -39 1 -48 -14 -13 -21 -3 -26
16 -7 22 22 14 -14 -9 -38 -12 -12 -19 -29 -16 -36 3 -8 9 -3 17 14 8 17 26
32 47 39 34 11 63 34 63 50 0 13 -17 11 -26 -2z"/>
<path d="M1451 2280 c-16 -9 -6 -30 15 -30 15 0 20 25 6 34 -4 2 -14 1 -21 -4z"/>
<path d="M2030 2209 c0 -25 33 -22 38 4 2 12 -3 17 -17 17 -15 0 -21 -6 -21
-21z"/>
<path d="M2368 2213 c-36 -42 -32 -65 13 -89 27 -13 32 -13 54 3 29 21 31 50
6 81 -23 26 -52 28 -73 5z m60 -24 c10 -16 10 -24 1 -35 -17 -20 -56 -18 -62
5 -11 45 37 69 61 30z"/>
<path d="M1939 2180 c-3 -37 -9 -47 -31 -58 -29 -13 -54 -49 -43 -60 3 -3 8 4
12 16 3 12 12 22 20 22 8 0 20 6 27 13 8 6 24 22 37 34 36 33 51 53 47 64 -2
5 -13 1 -25 -11 -28 -25 -31 -25 -36 3 -2 13 -5 3 -8 -23z"/>
<path d="M2215 2188 c-2 -7 -7 -25 -9 -40 -4 -22 -1 -28 13 -28 9 0 22 -5 28
-11 7 -7 15 -5 27 6 17 18 22 65 6 65 -5 0 -10 -11 -10 -25 0 -18 -5 -25 -20
-25 -24 0 -37 27 -21 43 6 6 11 15 11 19 0 13 -20 9 -25 -4z"/>
<path d="M2083 2183 c-7 -2 -13 -14 -13 -24 0 -52 -56 -81 -79 -41 -9 15 -12
15 -20 2 -12 -17 -4 -27 24 -32 11 -2 25 -14 32 -28 7 -14 13 -19 14 -12 1 6
2 18 3 25 1 6 9 11 18 9 18 -3 23 10 31 76 2 17 3 32 3 31 -1 0 -7 -3 -13 -6z"/>
<path d="M2218 2083 c-10 -2 -18 -13 -18 -24 0 -10 -11 -26 -24 -34 -13 -9
-26 -25 -29 -36 -8 -29 -49 -22 -57 10 -3 14 -11 26 -18 29 -10 3 -10 -2 0
-25 18 -42 28 -52 44 -46 8 3 14 0 14 -6 0 -19 39 11 42 33 4 24 42 31 62 10
14 -13 18 -13 43 3 15 10 28 17 30 16 9 -8 21 0 31 21 9 20 7 27 -7 40 -17 15
-73 20 -113 9z m50 -41 c4 -28 -24 -41 -44 -20 -20 20 -7 50 20 46 13 -2 22
-12 24 -26z m62 14 c0 -7 -6 -19 -14 -25 -12 -10 -17 -8 -25 8 -15 28 -14 31
14 31 15 0 25 -6 25 -14z"/>
<path d="M1922 2067 c-41 -37 -62 -61 -62 -71 0 -6 6 -3 14 6 7 10 24 22 38
27 14 5 28 19 31 30 6 23 -1 26 -21 8z"/>
<path d="M2104 2049 c-10 -16 3 -22 32 -15 14 4 24 9 22 12 -11 10 -48 12 -54
3z"/>
<path d="M1971 1974 c-6 -14 -11 -32 -11 -41 0 -11 -6 -14 -22 -8 -79 24 -149
21 -132 -6 7 -13 -13 -29 -37 -29 -10 0 -19 11 -22 29 -7 31 -27 36 -50 11 -6
-7 -7 -10 -1 -7 6 4 20 0 30 -8 18 -14 18 -15 -6 -35 -18 -14 -20 -20 -10 -20
9 0 21 5 28 12 10 9 16 8 29 -5 16 -16 19 -14 49 18 35 39 66 44 102 19 21
-15 24 -14 42 8 11 13 19 30 20 39 0 8 5 20 11 26 6 6 7 13 1 17 -5 3 -14 -6
-21 -20z"/>
<path d="M2020 1990 c0 -9 5 -21 11 -27 7 -7 -3 -23 -35 -56 -30 -29 -46 -53
-46 -70 0 -13 -10 -37 -21 -52 -19 -23 -28 -26 -63 -23 -35 3 -45 -1 -81 -34
-22 -21 -44 -38 -49 -38 -5 0 -17 -7 -26 -15 -21 -19 -50 -9 -50 16 0 24 27
36 49 22 12 -8 21 -3 41 21 13 17 17 25 8 18 -10 -8 -22 -11 -28 -7 -5 3 -10
1 -10 -4 0 -14 -27 -14 -32 0 -2 5 -14 -4 -26 -21 l-23 -30 25 -25 c14 -14 31
-25 38 -25 7 0 37 22 66 50 50 47 63 51 103 35 9 -3 24 1 33 10 9 9 23 14 32
11 8 -3 13 -2 10 3 -3 5 0 14 8 20 11 9 15 6 20 -14 4 -14 11 -25 16 -25 12 0
1 53 -12 58 -25 10 -1 72 44 114 31 29 35 54 13 84 -11 15 -14 16 -15 4z"/>
<path d="M1551 1906 c-32 -34 -28 -78 10 -109 32 -26 54 -26 74 0 6 8 19 15
30 17 30 4 29 23 -1 29 -20 3 -32 -1 -44 -16 -13 -15 -23 -18 -43 -13 -22 5
-27 12 -27 38 0 40 25 60 57 45 13 -6 23 -16 23 -24 0 -15 16 -18 24 -4 7 11
-22 37 -55 50 -22 8 -30 6 -48 -13z"/>
<path d="M1727 1833 c-4 -3 -7 -12 -7 -19 0 -10 6 -11 24 -4 27 10 36 5 36
-22 0 -19 15 -24 25 -8 3 5 3 21 -1 35 -5 20 -12 25 -38 25 -18 0 -36 -3 -39
-7z"/>
<path d="M2136 1802 c-10 -41 -5 -46 20 -27 13 10 15 17 8 22 -6 5 -13 15 -16
23 -3 9 -8 2 -12 -18z"/>
<path d="M2034 1772 c4 -7 2 -19 -4 -27 -8 -9 -9 -25 -5 -42 8 -27 8 -26 17
16 7 32 6 46 -3 55 -9 8 -10 8 -5 -2z"/>
<path d="M2180 1751 c0 -26 -17 -36 -36 -20 -14 11 -15 10 -12 -11 4 -31 20
-35 46 -13 24 21 32 54 15 60 -8 3 -13 -4 -13 -16z"/>
<path d="M2083 1693 c18 -5 24 -49 8 -55 -5 -1 -3 -9 5 -16 12 -11 14 -6 14
33 0 40 -2 45 -22 44 -17 -1 -19 -2 -5 -6z"/>
<path d="M1975 1665 c-4 -17 -8 -34 -10 -40 -1 -5 1 -20 6 -33 8 -20 11 -21
31 -11 13 7 25 10 28 8 3 -2 6 16 8 39 2 29 0 42 -7 37 -6 -3 -8 -17 -5 -31 4
-17 1 -26 -11 -30 -25 -10 -39 10 -26 35 8 14 9 27 2 38 -8 15 -10 13 -16 -12z"/>
<path d="M1507 1662 c-22 -24 -21 -35 1 -55 20 -18 52 -23 52 -8 0 5 3 18 7
28 6 17 6 17 -14 1 -28 -25 -43 -22 -43 7 0 19 5 25 21 25 11 0 17 5 14 10 -9
15 -20 12 -38 -8z"/>
<path d="M1850 1551 c0 -9 -8 -11 -21 -8 -15 4 -19 2 -15 -10 3 -8 6 -17 6
-19 0 -2 6 -4 14 -4 15 0 32 37 22 47 -3 4 -6 1 -6 -6z"/>
<path d="M1920 1513 c0 -6 -12 -16 -27 -22 -27 -11 -27 -11 6 -6 42 6 48 12
33 27 -8 8 -12 9 -12 1z"/>
<path d="M1975 1490 c-4 -6 -3 -9 2 -8 4 2 9 0 11 -4 3 -11 41 -48 48 -47 8 0
63 -71 80 -103 8 -16 19 -28 25 -28 19 0 -37 82 -110 163 -36 39 -46 44 -56
27z"/>
<path d="M1933 1463 c-7 -2 -13 -9 -13 -15 0 -14 43 -6 48 10 4 12 -12 15 -35
5z"/>
<path d="M2191 1405 c-1 -33 -4 -71 -8 -84 -5 -21 -4 -22 16 -11 18 9 20 14
10 26 -6 8 -9 29 -7 47 3 17 2 43 -3 57 -5 18 -7 8 -8 -35z"/>
<path d="M1707 1412 c-33 -37 -14 -72 39 -72 18 0 34 5 36 12 3 9 12 9 38 0
48 -17 71 -14 36 5 -22 11 -44 14 -88 9 -57 -6 -58 -5 -58 19 0 18 5 25 19 25
11 0 23 -4 26 -10 3 -5 13 -10 21 -10 10 0 9 5 -6 20 -25 25 -42 25 -63 2z"/>
<path d="M1846 1416 c-31 -14 -20 -32 13 -21 12 3 21 0 25 -10 8 -21 27 -19
19 3 -4 11 5 7 27 -13 l33 -30 -27 37 c-22 29 -50 52 -59 47 -1 0 -15 -6 -31
-13z"/>
<path d="M2120 1413 c0 -5 9 -19 20 -33 l20 -25 0 28 c0 16 -4 26 -10 22 -5
-3 -10 -1 -10 4 0 6 -4 11 -10 11 -5 0 -10 -3 -10 -7z"/>
<path d="M2073 1290 c9 -14 27 -40 40 -57 21 -31 37 -42 37 -25 -1 4 -22 30
-48 57 -25 28 -39 39 -29 25z"/>
<path d="M1795 1280 c-10 -31 12 -58 55 -70 34 -9 44 -8 63 6 22 16 21 16 -15
10 -34 -6 -38 -5 -38 14 0 13 7 20 20 20 33 0 22 18 -17 29 -53 15 -61 14 -68
-9z m53 -13 c4 -20 -25 -34 -40 -19 -15 15 -1 44 19 40 10 -2 19 -11 21 -21z"/>
<path d="M2203 1273 c-22 -4 -23 -8 -23 -116 0 -62 -3 -123 -6 -137 -5 -23 -4
-24 7 -5 8 13 12 54 10 121 -2 96 -1 103 18 109 12 3 21 13 21 21 0 8 -1 13
-2 13 -2 -1 -13 -4 -25 -6z"/>
<path d="M1956 1164 c-9 -8 -16 -21 -16 -27 0 -21 30 -57 47 -57 9 0 25 -7 35
-17 20 -18 25 -4 6 15 -10 10 -10 17 0 33 10 16 10 24 -5 44 -21 28 -45 32
-67 9z m58 -21 c9 -22 -2 -33 -30 -33 -19 0 -24 5 -24 24 0 37 41 43 54 9z"/>
<path d="M2100 1172 c0 -5 7 -15 15 -22 9 -8 13 -21 9 -33 -4 -14 -2 -18 7
-15 24 8 20 42 -6 61 -14 10 -25 14 -25 9z"/>
<path d="M2093 1064 c-7 -3 -13 -12 -13 -19 0 -7 -9 -15 -19 -18 -19 -5 -57
-75 -47 -85 11 -10 36 9 36 27 0 30 46 61 81 54 27 -5 29 -4 21 18 -9 23 -34
33 -59 23z"/>
<path d="M2202 1004 c-13 -9 -22 -26 -22 -42 0 -33 -8 -45 -37 -61 -31 -16
-50 -14 -72 10 -11 12 -24 18 -30 14 -15 -9 -14 -48 1 -43 7 3 19 -1 26 -9 10
-9 19 -10 32 -3 15 8 21 6 29 -7 6 -10 11 -13 11 -6 0 6 9 15 20 18 11 3 20
13 20 21 0 8 6 14 14 14 7 0 16 9 19 20 3 11 1 20 -4 20 -5 0 -9 7 -9 15 0 8
4 15 9 15 5 0 11 9 14 20 6 24 7 24 -21 4z"/>
<path d="M2095 818 c-8 -24 -10 -138 -2 -138 4 0 7 3 8 8 2 39 3 142 1 142 -1
0 -5 -6 -7 -12z"/>
<path d="M2032 793 c-10 -4 -9 -8 4 -18 10 -7 15 -19 11 -29 -8 -21 -37 -21
-38 2 0 11 -2 12 -6 4 -6 -16 16 -44 28 -36 5 3 14 -5 19 -18 7 -18 9 -9 7 40
-1 34 -4 62 -7 61 -3 0 -11 -3 -18 -6z"/>
<path d="M2133 689 c7 -29 -13 -56 -33 -44 -6 4 -10 -6 -10 -24 0 -21 -7 -34
-22 -42 -13 -7 -28 -19 -34 -27 -13 -18 -48 -12 -52 9 -2 11 6 19 24 23 26 7
54 28 54 42 0 3 -7 1 -15 -6 -25 -21 -28 -4 -4 19 l22 20 -24 20 c-33 28 -57
26 -71 -4 -10 -22 -8 -28 11 -46 21 -20 21 -22 5 -40 -15 -17 -15 -23 -4 -44
7 -14 18 -25 24 -25 18 0 63 33 86 63 12 15 28 27 36 27 8 0 14 9 14 20 0 12
9 24 20 28 20 8 20 9 -6 32 l-27 25 6 -26z m-113 -23 c0 -8 -6 -19 -14 -25
-12 -10 -17 -8 -25 8 -9 16 -8 22 6 30 20 11 33 6 33 -13z"/>
</g>
</svg>
