<?xml version="1.0" standalone="no"?>
<!DOCTYPE svg PUBLIC "-//W3C//DTD SVG 20010904//EN"
 "http://www.w3.org/TR/2001/REC-SVG-20010904/DTD/svg10.dtd">
<svg version="1.0" xmlns="http://www.w3.org/2000/svg"
 width="300.000000pt" height="168.000000pt" viewBox="0 0 300.000000 168.000000"
 preserveAspectRatio="xMidYMid meet">
<metadata>
Created by potrace 1.10, written by Peter Selinger 2001-2011
</metadata>
<g transform="translate(0.000000,168.000000) scale(0.100000,-0.100000)"
fill="#000000" stroke="none">
<path d="M225 1198 c-108 -37 -134 -165 -64 -308 30 -61 32 -72 34 -185 1
-138 16 -186 71 -235 61 -53 84 -33 84 75 0 85 16 148 45 175 55 51 102 -21
112 -170 7 -99 16 -116 56 -101 62 24 97 121 97 268 0 97 2 110 30 167 37 76
51 144 39 197 -26 114 -104 145 -235 93 l-65 -27 -67 26 c-89 35 -102 37 -137
25z m108 -44 c73 -30 112 -32 157 -9 51 26 90 36 90 22 0 -8 3 -7 9 2 5 7 14
10 21 6 9 -6 9 -10 -1 -17 -9 -6 -3 -7 19 -3 33 7 33 6 21 -17 -15 -28 -41
-48 -53 -41 -5 4 -6 1 -1 -6 5 -9 10 -10 18 -2 6 6 19 11 28 11 10 0 21 9 24
20 7 21 25 28 25 10 0 -5 -4 -10 -10 -10 -5 0 -7 -7 -3 -16 3 -8 12 -13 21 -9
12 4 13 3 2 -10 -7 -8 -10 -21 -7 -28 3 -8 1 -20 -4 -28 -8 -12 -10 -12 -18 1
-6 8 -14 11 -18 6 -4 -5 -2 -11 5 -13 21 -8 14 -43 -8 -43 -17 0 -20 5 -16 38
2 20 1 29 -1 20 -2 -10 -8 -18 -13 -18 -10 0 -8 -33 4 -41 5 -4 -1 -17 -13
-30 -11 -12 -21 -26 -21 -31 0 -4 -6 -8 -13 -8 -8 0 -24 -11 -37 -25 l-23 -25
21 0 c15 0 22 6 22 20 0 21 19 28 21 8 0 -10 2 -10 6 0 2 6 9 10 14 6 5 -3 8
5 6 18 -1 14 3 23 12 23 8 0 17 9 21 19 5 15 9 16 15 7 4 -8 2 -17 -6 -22 -8
-5 -9 -9 -4 -9 6 0 1 -7 -9 -15 -19 -15 -19 -15 4 -15 21 0 22 -1 8 -12 -17
-14 -38 -77 -38 -115 0 -17 4 -21 16 -16 14 5 15 3 6 -13 -6 -11 -10 -26 -10
-34 4 -66 -3 -110 -18 -110 -8 0 -22 -7 -30 -15 -23 -22 -34 -18 -34 13 0 15
-3 37 -6 50 -5 18 -2 22 19 22 14 0 27 -7 30 -14 4 -10 1 -13 -9 -9 -16 6 -20
-22 -4 -32 6 -3 10 -2 10 4 0 5 6 11 14 13 10 2 11 9 5 26 -7 17 -16 22 -44
22 -28 0 -35 4 -33 17 2 10 -3 18 -12 18 -8 1 -14 6 -13 12 3 15 -54 63 -73
63 -27 0 -54 -20 -84 -62 -28 -39 -30 -47 -30 -135 0 -104 -7 -112 -47 -54
-26 39 -37 114 -30 209 5 67 4 75 -34 153 -49 102 -58 155 -34 208 15 35 34
51 75 64 25 9 28 8 93 -19z m257 -637 c-11 -11 -23 -17 -27 -13 -4 4 -2 11 6
15 9 6 7 10 -8 14 -12 3 -21 11 -21 17 0 7 6 10 13 7 7 -3 20 5 27 16 13 22
14 22 21 -7 6 -21 3 -33 -11 -49z"/>
<path d="M265 1088 c-27 -15 -35 -28 -35 -58 l0 -25 23 27 c15 18 36 29 66 33
l44 7 -32 14 c-39 17 -40 17 -66 2z"/>
<path d="M469 1032 c14 -2 35 -11 48 -19 21 -14 23 -14 23 2 0 12 6 16 20 12
11 -3 18 -2 15 2 -2 4 -32 8 -67 8 -35 -1 -52 -3 -39 -5z"/>
<path d="M475 929 c-17 -6 -17 -8 -2 -8 21 -1 23 -19 2 -27 -20 -8 -19 -30 1
-38 24 -9 36 -7 29 4 -4 6 -12 7 -18 3 -7 -4 -7 -1 1 9 7 9 12 28 10 41 -2 20
-7 23 -23 16z"/>
<path d="M565 846 c-18 -28 -40 -34 -48 -13 -2 6 -8 9 -12 5 -10 -9 20 -39 43
-42 11 -2 21 8 29 33 15 44 10 51 -12 17z"/>
<path d="M1690 821 l0 -181 76 0 c135 0 186 44 192 166 3 57 0 79 -16 111 -31
60 -61 75 -164 81 l-88 5 0 -182z m171 116 c29 -22 39 -55 39 -125 0 -62 -3
-72 -26 -96 -22 -21 -36 -26 -75 -26 l-49 0 0 130 0 130 48 0 c26 0 54 -6 63
-13z"/>
<path d="M940 977 c0 -8 -27 -85 -59 -171 l-59 -157 31 3 c27 3 33 8 40 41 l9
38 71 -3 70 -3 12 -35 c10 -29 17 -36 42 -38 l31 -3 -28 73 c-16 40 -45 116
-64 168 -32 90 -36 95 -65 98 -22 2 -31 -1 -31 -11z m68 -144 c11 -28 18 -54
14 -57 -6 -7 -102 -8 -102 -1 0 2 9 30 21 62 11 32 23 65 26 73 6 16 3 21 41
-77z"/>
<path d="M2580 936 c0 -29 -3 -33 -20 -29 -16 4 -20 0 -20 -20 0 -20 4 -24 20
-20 19 5 20 0 20 -89 0 -115 12 -138 71 -138 35 0 39 3 39 25 0 20 -5 24 -22
22 -22 -2 -23 1 -26 92 l-3 93 26 -6 c22 -6 25 -3 25 20 0 23 -3 26 -25 22
-23 -5 -25 -2 -25 28 0 31 -3 34 -30 34 -27 0 -30 -3 -30 -34z"/>
<path d="M1410 905 c0 -4 18 -35 40 -68 l41 -60 -38 -56 c-50 -73 -49 -71 -14
-71 27 0 34 6 53 45 12 25 25 45 28 45 3 0 16 -20 28 -45 19 -39 26 -45 52
-45 22 0 29 4 24 13 -4 6 -23 36 -41 65 l-34 52 41 61 c22 33 40 61 40 63 0 1
-15 0 -34 -2 -28 -3 -37 -11 -51 -43 -10 -21 -21 -39 -25 -39 -4 0 -15 18 -25
40 -11 25 -25 40 -36 40 -9 0 -24 3 -33 6 -9 3 -16 3 -16 -1z"/>
<path d="M2073 900 c-38 -15 -63 -68 -63 -132 0 -76 33 -117 103 -128 52 -8
107 10 107 34 0 23 -14 27 -49 15 -43 -15 -78 -4 -96 31 -8 16 -15 31 -15 35
0 3 40 5 88 5 l89 0 -7 43 c-3 23 -12 52 -19 65 -20 38 -86 53 -138 32z m79
-42 c9 -7 19 -23 23 -35 6 -22 4 -23 -55 -23 l-61 0 16 29 c20 41 49 51 77 29z"/>
<path d="M2280 775 l0 -135 30 0 30 0 0 99 c0 92 2 101 22 115 28 20 39 20 63
2 16 -12 18 -25 16 -115 l-2 -101 33 0 33 0 -5 116 c-5 107 -7 117 -29 135
-31 25 -85 25 -111 -1 -11 -11 -22 -20 -25 -20 -3 0 -5 9 -5 20 0 15 -7 20
-25 20 l-25 0 0 -135z"/>
<path d="M1160 801 c0 -89 2 -103 23 -126 29 -35 78 -37 112 -5 l25 23 0 -21
c0 -17 6 -22 25 -22 l25 0 0 125 0 125 -30 0 -30 0 0 -95 c0 -83 -2 -96 -19
-105 -30 -16 -59 -12 -71 9 -5 11 -10 58 -10 105 0 85 0 86 -25 86 -25 0 -25
0 -25 -99z"/>
</g>
</svg>
